<?xml version="1.0" encoding="UTF-8"?><svg xmlns="http://www.w3.org/2000/svg" xmlns:xlink="http://www.w3.org/1999/xlink" height="322.7" preserveAspectRatio="xMidYMid meet" version="1.0" viewBox="-10.3 -0.3 520.6 322.7" width="520.6" zoomAndPan="magnify"><g><g fill="#db9fb3" id="change1_1"><path d="M469.443,5.523c40.472-.259,40.875,62.488,.409,62.75-40.464,.261-40.869-62.486-.409-62.75Z"/><path d="M244.036,82.288c-40.462,.258-40.869-62.49-.407-62.754,40.468-.259,40.871,62.488,.407,62.754Z"/><path d="M30.152,0c40.462-.261,40.871,62.486,.399,62.75C-9.912,63.014-10.32,.264,30.152,0Z"/><path d="M165.638,221.896c20.019-32.494,51.625-65.099,68.61-101.352,20.656,32.414,44.874,68.341,65.256,100.483l4.181-.028c45.857-25.398,116.614-80.238,145.603-126.447l-4.134,8.394c-18.7,57.349-34.085,114.675-52.183,172.019-46.895,14.888-179.143,47.455-317.323-3.098-16.669-57.003-25.791-119.11-44.689-174.606l-8.447-12.495c42.157,49.928,100.935,83.018,143.096,132.944l.029,4.185Z"/></g></g></svg>